<?xml version="1.0" encoding="iso-8859-1"?>
<!-- Uploaded to: SVG Repo, www.svgrepo.com, Generator: SVG Repo Mixer Tools -->
<svg height="20px" width="20px" version="1.1" id="Layer_1" xmlns="http://www.w3.org/2000/svg" xmlns:xlink="http://www.w3.org/1999/xlink" 
	 viewBox="0 0 512 512" xml:space="preserve">
<path style="fill:#E4EAF6;" d="M385.173,0.668c-48.648,5.376-88.014,44.892-93.234,93.557
	c-4.85,45.226,18.801,85.463,55.211,105.044l-8.183,33.498c-1.661,6.797,4.873,12.644,11.517,10.449
	c33.161-10.959,46.757-31.354,46.757-31.354c58.505,0,105.931-47.427,105.931-105.931C503.172,43.451,449.081-6.395,385.173,0.668z"
	/>
<circle style="fill:#FFFFFF;" cx="397.241" cy="105.931" r="52.966"/>
<path style="fill:#D7DEED;" d="M176.552,353.103h-35.31L25.475,399.409c-10.055,4.022-16.648,13.76-16.648,24.589v70.346
	c0,9.751,7.904,17.655,17.655,17.655H291.31c9.751,0,17.655-7.904,17.655-17.655v-70.346c0-10.829-6.593-20.567-16.648-24.588
	L176.552,353.103z"/>
<rect x="20" y="20" style="fill:#D29B6E;" width="20px" height="20px"/>
<path style="fill:#EDCA64;" d="M256,229.517c8.828-8.828,17.655-30.888,17.655-44.138c0-53.629-51.379-114.759-114.759-114.759
	S44.138,131.75,44.138,185.379c0,13.25,8.828,35.31,17.655,44.138"/>
<path style="fill:#FF5050;" d="M450.207,61.793h-35.31c-4.879,0-8.828,3.948-8.828,8.828c0,4.879,3.948,8.828,8.828,8.828h14.001
	l-31.656,31.656L385.827,99.69c-3.448-3.448-9.035-3.448-12.483,0L338.034,135c-3.448,3.448-3.448,9.035,0,12.483
	c1.725,1.725,3.982,2.586,6.241,2.586s4.518-0.862,6.241-2.586l29.07-29.069L391,129.828c3.448,3.448,9.035,3.448,12.483,0
	l37.896-37.897v13.999c0,4.879,3.948,8.828,8.828,8.828c4.879,0,8.828-3.948,8.828-8.828V70.62
	C459.034,65.741,455.086,61.793,450.207,61.793z"/>
<g>
	<path style="fill:#E4EAF6;" d="M47.669,430.786l-32.265-24.199c-4.134,4.729-6.577,10.858-6.577,17.41v70.347
		c0,9.75,7.905,17.655,17.655,17.655h35.31v-52.966C61.793,447.92,56.56,437.454,47.669,430.786z"/>
	<path style="fill:#E4EAF6;" d="M270.124,430.786l32.265-24.199c4.134,4.729,6.577,10.858,6.577,17.41v70.347
		c0,9.75-7.905,17.655-17.655,17.655H256v-52.966C256,447.92,261.232,437.454,270.124,430.786z"/>
	<path style="fill:#E4EAF6;" d="M225.747,351.862c-2.766-4.149-8.418-5.185-12.476-2.286l-54.375,38.838l-54.375-38.839
		c-4.057-2.899-9.709-1.863-12.476,2.286l-12.598,18.898l29.969,44.953c2.872,4.308,8.818,5.231,12.861,1.996l20.62-16.497
		c2.89-2.312,7.171-0.255,7.171,3.446V512h17.655V404.659c0-3.701,4.281-5.759,7.171-3.446l20.621,16.497
		c4.043,3.234,9.987,2.311,12.86-1.996l29.969-44.954L225.747,351.862z"/>
</g>
<path style="fill:#EDCA64;" d="M97.103,300.138c0,0-26.483,26.483-26.483,70.621c0,44.366,22.753,75.081,35.587,88.876
	c3.065,3.295,8.551,1.048,8.551-3.452V300.138H97.103z"/>
<path style="fill:#F0C087;" d="M247.172,220.689h-1.606l1.014-11.151c0.328-3.607-1.554-7.135-4.84-8.66
	c-13.854-6.429-22.034-17.686-26.238-25.279c-2.268-4.095-7.258-5.707-11.452-3.629c-37.897,18.776-101.902,27.512-124.892,30.157
	c-4.766,0.548-8.188,4.787-7.753,9.564l0.819,8.999h-1.606c-9.751,0-17.655,7.904-17.655,17.655V256
	c0,9.751,7.904,17.655,17.655,17.655h6.42l0.717,7.884c1.058,11.636,7.804,21.995,18.017,27.669l45.974,25.54
	c10.665,5.924,23.631,5.924,34.296,0l45.973-25.54c10.215-5.675,16.96-16.034,18.018-27.671l0.716-7.883h6.42
	c9.751,0,17.655-7.904,17.655-17.655v-17.655C264.827,228.593,256.923,220.689,247.172,220.689z"/>
<path style="fill:#E6AF78;" d="M215.503,175.599c-2.268-4.095-7.258-5.706-11.452-3.628
	c-37.898,18.776-101.903,27.512-124.892,30.157c-4.766,0.548-8.188,4.787-7.753,9.564l0.812,8.925l0.007,0.073h-1.606
	c-9.751,0-17.655,7.904-17.655,17.655V256c0,9.751,7.904,17.655,17.655,17.655h6.42l0.716,7.883
	c1.058,11.637,7.804,21.996,18.018,27.671l45.973,25.54c4.376,2.432,9.145,3.809,13.978,4.245l-13.801-23.002
	c-6.258-10.43-10.038-22.158-11.048-34.28l-5.053-60.631c-0.375-4.504,2.689-8.525,7.126-9.388
	c23.666-4.602,50.141-11.23,71.538-20.499c7.167,10.375,18.956,22.542,37.1,28.589l1.878,0.626l1.97,0.194l0.137,0.013l1.007-11.08
	c0.328-3.607-1.554-7.135-4.84-8.66C227.887,194.449,219.709,183.191,215.503,175.599z"/>
</svg>