<?xml version="1.0" encoding="iso-8859-1"?>
<!-- Uploaded to: SVG Repo, www.svgrepo.com, Generator: SVG Repo Mixer Tools -->
<svg height="65px" width="65px" version="1.1" id="Layer_1" xmlns="http://www.w3.org/2000/svg" xmlns:xlink="http://www.w3.org/1999/xlink" 
	 viewBox="0 0 512 512" xml:space="preserve">
<path style="fill:#272F37;" d="M8.774,217.553L8.774,217.553c9.886,40.115,65.584,47.307,66.291,190.831
	c0.007,1.524,1.236,2.766,2.76,2.766c3.635,0,9.196,0,12.508,0c1.528,0,2.756-1.239,2.756-2.766V303.506l0,0
	c0-19.046,20.643-24.23,36.055-19.774l7.112,2.056L80.811,182.354L8.774,217.553z"/>
<path style="opacity:0.25;enable-background:new    ;" d="M80.811,182.354L8.774,217.553l0,0c2.124,8.618,6.366,15.717,11.72,22.975
	l7.34,3.109c26.952,11.414,52.618,25.353,76.702,41.549c7.201-3.475,16.607-3.768,24.609-1.454l7.112,2.056L80.811,182.354z"/>
<path style="fill:#DE2A4E;" d="M486.287,403.103c13.495-1.648,21.553-15.875,16.027-28.296l0,0
	c-3.765-8.461-10.639-15.151-19.199-18.682l-29.959-12.361c-40.494-16.706-82.447-29.629-125.322-38.603l0,0
	c-15.318-3.206-29.256-11.103-39.879-22.594l0,0C219.196,208.195,137.459,146.978,46.75,101.915l0,0
	c-4.846-2.407-10.731-0.646-13.457,4.028l0,0c-19.667,33.714-28.244,72.756-24.518,111.61l0,0l32.575,13.796
	c76.687,32.477,143.027,85.317,191.834,152.798l0,0c12.267,16.959,31.926,27.003,52.857,27.003h114.725
	C434.033,411.15,486.287,403.103,486.287,403.103z"/>
<path style="opacity:0.15;fill:#FFFFFF;enable-background:new    ;" d="M483.115,356.124l-29.959-12.361
	c-14.511-5.986-29.213-11.479-44.074-16.487c1.344,31.098,26.973,55.9,58.402,55.9c12.547,0,24.161-3.965,33.685-10.693
	C497.24,365.126,490.875,359.325,483.115,356.124z"/>
<path style="fill:#272F37;" d="M239.643,391.732c12.158,12.313,28.82,19.417,46.398,19.417h114.725
	c33.267,0,85.522-8.048,85.522-8.048c7.271-0.888,12.958-5.43,15.798-11.371H239.643V391.732z"/>
<path style="fill:#B7B9BC;" d="M93.09,391.732H75.071v16.651c0,1.528,1.238,2.766,2.766,2.766h12.485
	c1.528,0,2.766-1.238,2.766-2.766v-16.651H93.09z"/>
<path style="opacity:0.25;enable-background:new    ;" d="M327.834,305.159L327.834,305.159
	c-15.318-3.206-29.256-11.103-39.879-22.594l0,0c-42.951-46.456-90.965-87.779-143.067-123.24
	c16.923,20.04,38.386,46.678,65.671,81.966c92.081,119.091,136.285,90.871,166.845,76.127
	C361.04,312.744,344.507,308.649,327.834,305.159z"/>
<path d="M509.541,371.591c-4.611-10.364-12.924-18.453-23.409-22.779l-29.959-12.361c-40.842-16.85-83.476-29.983-126.717-39.033
	c-13.788-2.886-26.129-9.879-35.693-20.221C224.098,201.846,142.174,140.489,50.269,94.832c-8.545-4.244-19.001-1.115-23.808,7.126
	C5.832,137.322-3.007,177.555,0.902,218.308c0.037,0.387,0.107,0.766,0.198,1.137l-0.004,0.001
	c3.437,13.947,11.358,23.905,20.53,35.438c19.014,23.906,45.054,56.647,45.53,153.54c0.03,5.864,4.816,10.635,10.668,10.635
	l12.508-0.001c5.881,0,10.665-4.788,10.665-10.675V303.505c0-4.263,1.468-7.438,4.486-9.708c4.906-3.689,13.734-4.704,21.464-2.469
	l5.702,1.648c35.84,26.911,67.618,59.154,94.126,95.804c13.713,18.958,35.868,30.277,59.266,30.277h114.725
	c33.03,0,83.174-7.596,86.609-8.122c8.893-1.126,16.52-6.239,20.94-14.045C512.757,389.049,513.204,379.828,509.541,371.591z
	 M282.148,287.936c11.806,12.769,27.044,21.402,44.066,24.965c9.275,1.941,18.52,4.086,27.726,6.408
	c-27.962,9.923-67.293,7.462-137.125-82.854c-9.301-12.029-18.14-23.327-26.504-33.881
	C222.911,228.552,253.583,257.039,282.148,287.936z M85.181,403.241l-2.256,0.001c-0.017-1.213-0.041-2.407-0.066-3.601h2.322
	V403.241z M95.979,281.155c-7.064,5.31-10.798,13.04-10.798,22.35v80.318h-2.906C77.79,300.1,52.732,268.583,34.005,245.037
	c-3.426-4.309-6.549-8.244-9.231-12.121l13.492,5.714c24.343,10.309,47.616,22.717,69.598,37.012
	C103.416,276.775,99.341,278.627,95.979,281.155z M400.766,403.242H286.041c-6.886,0-13.635-1.252-19.947-3.601h185.714
	C435.412,401.497,415.956,403.242,400.766,403.242z M496.13,383.823H243.073c-1.219-1.379-2.393-2.806-3.481-4.312
	C189.938,310.86,122.454,257.107,44.434,224.065L16.26,212.135c-2.509-35.833,5.703-71.075,23.862-102.207
	c0.627-1.077,1.994-1.487,3.108-0.931c33.46,16.623,65.568,35.371,96.218,56.15c17.857,21.177,39.667,48.411,64.851,80.983
	c40.247,52.054,75.454,81.587,107.63,90.289c7.226,1.954,13.969,2.765,20.26,2.765c18.802,0,33.57-7.251,45.135-12.928
	c0.27-0.133,0.528-0.257,0.796-0.388c24.453,7.102,48.538,15.521,72.016,25.207l29.959,12.361c6.714,2.77,12.037,7.95,14.99,14.586
	C495.919,379.887,496.256,381.869,496.13,383.823z"/>
</svg>